<svg width="29" height="30" viewBox="0 0 29 30" fill="none" xmlns="http://www.w3.org/2000/svg">
<path d="M13.3368 28.2389L13.3355 28.2374C12.8772 27.6965 12.6646 26.9809 12.6646 26.2911C12.6646 25.6012 12.8772 24.8856 13.3355 24.3447L13.337 24.343L18.7772 17.9797L13.3368 28.2389ZM13.3368 28.2389C14.302 29.3691 15.9044 29.3691 16.8696 28.2389L27.9186 15.3014L28.196 14.9766L27.9185 14.6518L16.8696 1.72119C16.8696 1.72115 16.8696 1.72112 16.8695 1.72109C15.9043 0.591008 14.302 0.591041 13.3368 1.72118L13.3355 1.72266C12.8772 2.26358 12.6646 2.97916 12.6646 3.66903C12.6646 4.35891 12.8772 5.07448 13.3355 5.61541L13.3368 5.61688M13.3368 28.2389L13.3368 5.61688M13.3368 5.61688L18.7772 11.9872C18.804 12.0185 18.8314 12.0774 18.8314 12.1582C18.8314 12.2357 18.8038 12.2964 18.7736 12.3318C18.7589 12.349 18.746 12.3575 18.7386 12.3613C18.7319 12.3646 18.729 12.3645 18.7282 12.3645L3.0218 12.3645C1.67697 12.3645 0.7122 13.6161 0.7122 14.9834C0.7122 16.3497 1.67022 17.6023 3.0218 17.6023H18.7282C18.7296 17.6023 18.7472 17.6014 18.7747 17.6338C18.8035 17.6677 18.8314 17.7284 18.8314 17.8086C18.8314 17.8849 18.8027 17.9497 18.7774 17.9795L13.3368 5.61688ZM17.2724 11.9383H18.3569L17.6526 11.1136L13.2477 5.95585C12.1938 4.67081 12.2321 2.59941 13.3251 1.36622C14.3553 0.211668 15.9407 0.212078 16.9651 1.36254L28.4432 14.7958C28.5189 14.8887 28.5189 15.0645 28.4432 15.1575L16.9625 28.5937C16.9625 28.5938 16.9624 28.5938 16.9624 28.5939C15.9214 29.8069 14.2766 29.8008 13.2461 28.5828L13.2454 28.5819C12.1746 27.3222 12.1745 25.2539 13.2449 23.994C13.245 23.9938 13.2452 23.9936 13.2454 23.9934L17.6526 18.8329L18.3569 18.0082H17.2724H3.0218C1.69807 18.0082 0.5 16.7259 0.5 14.9766C0.5 13.22 1.69864 11.9383 3.0218 11.9383L17.2724 11.9383Z" fill="black" stroke="white"/>
</svg>
